{"title":"The.Brothers.Grimm.2005.1080p.BluRay.x264.DTS-FGT","uid":11789243,"size":18343991174,"categoryP":"video","categoryS":"hd___movies","magnet":"?xt=urn:btih:71735b45ac01cf8fa0c6af33bd85122844ef5933&amp;dn=The.Brothers.Grimm.2005.1080p.BluRay.x264.DTS-FGT&amp;tr=udp%3A%2F%2Ftracker.openbittorrent.com%3A80&amp;tr=udp%3A%2F%2Fopen.demonii.com%3A1337&amp;tr=udp%3A%2F%2Ftracker.coppersurfer.tk%3A6969&amp;tr=udp%3A%2F%2Fexodus.desync.com%3A6969","seeders":1,"leechers":1,"uploader":"makintos13","files":2,"time":1427868109,"description":" &lt;a href=&quot;http://imgmak.com/Kg&quot; rel=&quot;nofollow&quot; target=&quot;_NEW&quot;&gt;http://imgmak.com/Kg&lt;/a&gt;\n &lt;a href=&quot;\nhttp://imgmak.com/Ko&quot; rel=&quot;nofollow&quot; target=&quot;_NEW&quot;&gt;\nhttp://imgmak.com/Ko&lt;/a&gt;\n &lt;a href=&quot;\nhttp://imgmak.com/KN&quot; rel=&quot;nofollow&quot; target=&quot;_NEW&quot;&gt;\nhttp://imgmak.com/KN&lt;/a&gt;\n\n\nVideo\nID                                       : 1\nFormat                                   : AVC\nFormat/Info                              : Advanced Video Codec\nFormat profile                           : &lt;a class=&quot;__cf_email__&quot; href=&quot;/cdn-cgi/l/email-protection&quot; data-cfemail=&quot;8bc3e2ece3cbc7bfa5ba&quot;&gt;[email&amp;#160;protected]&lt;/a&gt;&lt;script cf-hash='f9e31' type=&quot;text/javascript&quot;&gt;\n/* &lt;![CDATA[ */!function(){try{var t=&quot;currentScript&quot;in document?document.currentScript:function(){for(var t=document.getElementsByTagName(&quot;script&quot;),e=t.length;e--;)if(t[e].getAttribute(&quot;cf-hash&quot;))return t[e]}();if(t&amp;&amp;t.previousSibling){var e,r,n,i,c=t.previousSibling,a=c.getAttribute(&quot;data-cfemail&quot;);if(a){for(e=&quot;&quot;,r=parseInt(a.substr(0,2),16),n=2;a.length-n;n+=2)i=parseInt(a.substr(n,2),16)^r,e+=String.fromCharCode(i);e=document.createTextNode(e),c.parentNode.replaceChild(e,c)}}}catch(u){}}();/* ]]&gt; */&lt;/script&gt;\nFormat settings, CABAC                   : Yes\nFormat settings, ReFrames                : 4 frames\nCodec ID                                 : V_MPEG4/ISO/AVC\nDuration                                 : 1h 58mn\nBit rate                                 : 18.7 Mbps\nWidth                                    : 1 920 pixels\nHeight                                   : 1 040 pixels\nDisplay aspect ratio                     : 1.85:1\nFrame rate mode                          : Constant\nFrame rate                               : 23.976 fps\nColor space                              : YUV\nChroma subsampling                       : 4:2:0\nBit depth                                : 8 bits\nScan type                                : Progressive\nBits/(Pixel*Frame)                       : 0.390\nStream size                              : 15.5 GiB (91%)\nWriting library                          : x264 core 129 r2230kMod 1cffe9f\nEncoding settings                        : cabac=1 / ref=4 / deblock=1:-3:-3 / analyse=0x3:0x113 / me=umh / subme=11 / psy=1 / fade_compensate=0.00 / psy_rd=0.90:0.00 / mixed_ref=1 / me_range=48 / chroma_me=1 / trellis=2 / 8x8dct=1 / cqm=0 / deadzone=21,11 / fast_pskip=1 / chroma_qp_offset=-2 / threads=12 / lookahead_threads=2 / sliced_threads=0 / nr=0 / decimate=1 / interlaced=0 / bluray_compat=0 / constrained_intra=0 / bframes=8 / b_pyramid=2 / b_adapt=2 / b_bias=0 / direct=3 / weightb=1 / open_gop=0 / weightp=2 / keyint=250 / keyint_min=24 / scenecut=40 / intra_refresh=0 / rc_lookahead=40 / rc=crf / mbtree=0 / crf=18.5000 / qcomp=0.70 / qpmin=0 / qpmax=69 / qpstep=4 / vbv_maxrate=50000 / vbv_bufsize=62500 / crf_max=0.0 / nal_hrd=none / ip_ratio=1.40 / pb_ratio=1.10 / aq=1:0.65\nLanguage                                 : English\nDefault                                  : No\nForced                                   : No\nMatrix coefficients                      : BT.709\nColor range                              : Limited\n\nAudio\nID                                       : 2\nFormat                                   : DTS\nFormat/Info                              : Digital Theater Systems\nMode                                     : 16\nFormat settings, Endianness              : Big\nCodec ID                                 : A_DTS\nDuration                                 : 1h 58mn\nBit rate mode                            : Constant\nBit rate                                 : 1 510 Kbps\nChannel(s)                               : 6 channels\nChannel positions                        : Front: L C R, Side: L R, LFE\nSampling rate                            : 48.0 KHz\nBit depth                                : 24 bits\nCompression mode                         : Lossy\nStream size                              : 1.25 GiB (7%)\nLanguage                                 : English\nDefault                                  : Yes\nForced                                   : No\n\nText\nID                                       : 3\nFormat                                   : UTF-8\nCodec ID                                 : S_TEXT/UTF8\nCodec ID/Info                            : UTF-8 Plain Text\nLanguage                                 : English\nDefault                                  : No\nForced                                   : No\n\nMenu\n00:00:00.000                             : en:The Mill Witch\n00:11:33.859                             : en:Little Red\n00:13:30.225                             : en:He Can't Hold His Liquor!\n00:18:04.624                             : en:The General's Amnesty\n00:21:18.192                             : en:Hans and Greta\n00:23:21.441                             : en:Welcome to Marbaden\n00:28:32.085                             : en:The Trapper\n00:31:24.548                             : en:The Tower in the Forest\n00:37:03.512                             : en:Grandmother Toad\n00:41:01.625                             : enemon Horse\n00:46:30.453                             : en:The Forest Attacks\n00:52:17.634                             : en:Torture Chamber\n00:57:52.426                             : en:A Real Live Story\n01:06:40.246                             : en:The Gingerbread Man\n01:09:39.466                             : en:12 Crypts, 11 Girls\n01:19:01.987                             : en:She's Still There\n01:21:51.531                             : en:Burn the Forest\n01:26:49.329                             : en:Angelika Is the Twelfth\n01:31:24.061                             : en:Finish the Story\n01:42:58.922                             : en:The Kiss of True Love\n01:48:38.887                             : en:Happily Ever After\n01:50:57.984                             : en:End Credits","torrent":{"xt":"urn:btih:71735b45ac01cf8fa0c6af33bd85122844ef5933","amp;dn":"The.Brothers.Grimm.2005.1080p.BluRay.x264.DTS-FGT","amp;tr":["udp%3A%2F%2Ftracker.openbittorrent.com%3A80","udp%3A%2F%2Fopen.demonii.com%3A1337","udp%3A%2F%2Ftracker.coppersurfer.tk%3A6969","udp%3A%2F%2Fexodus.desync.com%3A6969"],"infoHash":"71735b45ac01cf8fa0c6af33bd85122844ef5933","infoHashBuffer":{"type":"Buffer","data":[113,115,91,69,172,1,207,143,160,198,175,51,189,133,18,40,68,239,89,51]},"announce":[],"urlList":[]}}